<svg id="Header-v2-Copy-2" xmlns="http://www.w3.org/2000/svg" width="240.438" height="33.375" viewBox="0 0 240.438 33.375">
  <g id="logo" transform="translate(0 0)">
    <g id="Text" transform="translate(57.89 5.518)">
      <path id="Fill-1" d="M9.9,10.667H8.225l-1.9-6.256-1.9,6.256H2.751L0,.357H2.1l1.593,6.5L5.575.357H7.081l1.882,6.5,1.608-6.5h2.1Z" transform="translate(0 -0.27)" fill-rule="evenodd"/>
      <path id="Fill-2" d="M23.633,3.4l-1.3,3.751h2.563Zm2.4,7.269-.609-1.825H21.765l-.623,1.825h-2.1L22.793.356h1.578l3.765,10.31Z" transform="translate(-5.593 -0.27)" fill-rule="evenodd"/>
      <path id="Fill-3" d="M40.064,2.79a1.8,1.8,0,0,0-1.506-.638H37.022V8.871h1.535a1.8,1.8,0,0,0,1.506-.637c.376-.449.42-1.1.42-2.722s-.044-2.274-.42-2.722m1.781,6.372a3.5,3.5,0,0,1-3.113,1.506H35.01V.357h3.721a3.5,3.5,0,0,1,3.113,1.506c.638.884.652,1.94.652,3.649s-.014,2.766-.652,3.649" transform="translate(-10.283 -0.27)" fill-rule="evenodd"/>
      <path id="Fill-5" d="M52.262,10.718A4.843,4.843,0,0,1,48.5,9.356l1.3-1.3a3.36,3.36,0,0,0,2.476.869c1.2,0,1.839-.463,1.839-1.289a1.158,1.158,0,0,0-.318-.854,1.472,1.472,0,0,0-.927-.348L51.64,6.244a3.416,3.416,0,0,1-2-.854A2.7,2.7,0,0,1,48.9,3.362c0-1.839,1.362-3.128,3.592-3.128a4.418,4.418,0,0,1,3.331,1.2L54.55,2.7a2.852,2.852,0,0,0-2.115-.71c-1.071,0-1.579.594-1.579,1.3a.961.961,0,0,0,.29.739,1.67,1.67,0,0,0,.942.391l1.231.188a3.275,3.275,0,0,1,1.97.811,2.811,2.811,0,0,1,.8,2.172c0,2-1.65,3.128-3.823,3.128" transform="translate(-14.244 -0.234)" fill-rule="evenodd"/>
      <path id="Fill-7" d="M71.541,10.667h-1.68l-1.9-6.256-1.9,6.256H64.388L61.636.357h2.1l1.593,6.5,1.883-6.5h1.506l1.882,6.5,1.608-6.5h2.1Z" transform="translate(-18.103 -0.27)" fill-rule="evenodd"/>
      <path id="Fill-9" d="M87.088,2.58A1.675,1.675,0,0,0,85.8,2.029a1.73,1.73,0,0,0-1.3.551c-.376.434-.492.927-.492,2.9s.116,2.447.492,2.881a1.738,1.738,0,0,0,1.3.566,1.682,1.682,0,0,0,1.289-.566c.377-.434.507-.912.507-2.881s-.13-2.462-.507-2.9m1.463,7.052a4.046,4.046,0,0,1-5.517,0C82.006,8.6,81.991,7.445,81.991,5.476s.015-3.128,1.042-4.156a4.047,4.047,0,0,1,5.517,0c1.028,1.028,1.057,2.186,1.057,4.156S89.579,8.6,88.551,9.631" transform="translate(-24.081 -0.234)" fill-rule="evenodd"/>
      <path id="Fill-11" d="M100.885,2.152h-1.9V4.875h1.9a1.344,1.344,0,0,0,1.462-1.361,1.344,1.344,0,0,0-1.462-1.361Zm1.564,8.515-2.013-4.113H98.988v4.113H96.975V.357h4.04a3.116,3.116,0,0,1,3.345,3.156,2.776,2.776,0,0,1-1.883,2.708l2.3,4.446Z" transform="translate(-28.482 -0.27)" fill-rule="evenodd"/>
      <path id="Fill-13" d="M114.984,2.152v8.515h-2.013V2.152h-2.693V.357h7.4v1.8Z" transform="translate(-32.389 -0.27)" fill-rule="evenodd"/>
      <path id="Fill-15" d="M129.863,10.667V6.352h-3.49v4.315H124.36V.357h2.013V4.57h3.49V.357h2.013v10.31Z" transform="translate(-36.526 -0.27)" fill-rule="evenodd"/>
      <path id="Fill-17" d="M148.731,3.4l-1.3,3.751h2.563Zm2.4,7.269-.609-1.825h-3.663l-.623,1.825h-2.1L147.89.356h1.579l3.766,10.31Z" transform="translate(-42.335 -0.27)" fill-rule="evenodd"/>
      <path id="Fill-19" d="M162.293,2.152v8.515H160.28V2.152h-2.693V.357h7.4v1.8Z" transform="translate(-46.284 -0.27)" fill-rule="evenodd"/>
      <path id="Fill-21" d="M177.171,10.667V6.352h-3.49v4.315h-2.013V.357h2.013V4.57h3.49V.357h2.013v10.31Z" transform="translate(-50.42 -0.27)" fill-rule="evenodd"/>
      <path id="Fill-23" d="M187,10.667V.357h6.791v1.8h-4.779V4.57h4.069v1.8h-4.069v2.5h4.779v1.8Z" transform="translate(-54.924 -0.27)" fill-rule="evenodd"/>
      <path id="Fill-25" d="M206.79,10.667l-4.083-6.328v6.328h-2.013V.357h1.8l4.083,6.313V.357h2.013v10.31Z" transform="translate(-58.945 -0.27)" fill-rule="evenodd"/>
      <path id="Fill-27" d="M216.559,10.667V.357h6.791v1.8h-4.778V4.57h4.068v1.8h-4.068v2.5h4.778v1.8Z" transform="translate(-63.605 -0.27)" fill-rule="evenodd"/>
      <path id="Fill-29" d="M233.82,10.754a3.584,3.584,0,0,1-3.794-3.62V.357h2.012v6.7a1.792,1.792,0,1,0,3.577,0V.357h2V7.133a3.584,3.584,0,0,1-3.794,3.62" transform="translate(-67.56 -0.27)" fill-rule="evenodd"/>
      <path id="Fill-31" d="M252.563,10.667V4.658l-1.969,3.91h-1.362l-1.983-3.91v6.009h-2.014V.357h1.984l2.693,5.575L252.591.357h1.984v10.31Z" transform="translate(-72.027 -0.27)" fill-rule="evenodd"/>
      <path id="Fill-33" d="M8.906,35.264v-6.01l-1.969,3.91H5.575l-1.984-3.91v6.01H1.579V24.954H3.562l2.693,5.575,2.679-5.575h1.984v10.31Z" transform="translate(-0.464 -7.494)" fill="#a4a6a8" fill-rule="evenodd"/>
      <path id="Fill-35" d="M23.062,35.351a3.584,3.584,0,0,1-3.794-3.62V24.954h2.013v6.7a1.791,1.791,0,1,0,3.576,0v-6.7h2v6.777a3.584,3.584,0,0,1-3.794,3.62" transform="translate(-5.659 -7.494)" fill="#a4a6a8" fill-rule="evenodd"/>
      <path id="Fill-37" d="M36.93,35.315a4.839,4.839,0,0,1-3.765-1.362l1.3-1.3a3.36,3.36,0,0,0,2.476.869c1.2,0,1.839-.464,1.839-1.289a1.16,1.16,0,0,0-.319-.854,1.47,1.47,0,0,0-.927-.347l-1.231-.188a3.413,3.413,0,0,1-2-.854,2.7,2.7,0,0,1-.739-2.028c0-1.838,1.362-3.128,3.592-3.128a4.417,4.417,0,0,1,3.331,1.2l-1.274,1.26a2.849,2.849,0,0,0-2.115-.71c-1.071,0-1.579.594-1.579,1.3a.96.96,0,0,0,.29.739,1.672,1.672,0,0,0,.942.391l1.231.188a3.273,3.273,0,0,1,1.97.811,2.813,2.813,0,0,1,.8,2.172c0,2-1.65,3.128-3.823,3.128" transform="translate(-9.741 -7.458)" fill="#a4a6a8" fill-rule="evenodd"/>
      <path id="Fill-39" d="M47.883,35.264V24.954h6.791v1.8H49.9v2.418h4.069v1.8H49.9v2.506h4.778v1.8Z" transform="translate(-14.064 -7.494)" fill="#a4a6a8" fill-rule="evenodd"/>
      <path id="Fill-41" d="M65.144,35.351a3.584,3.584,0,0,1-3.794-3.62V24.954h2.013v6.7a1.791,1.791,0,1,0,3.576,0v-6.7h2v6.777a3.585,3.585,0,0,1-3.794,3.62" transform="translate(-18.019 -7.494)" fill="#a4a6a8" fill-rule="evenodd"/>
      <path id="Fill-43" d="M83.887,35.264v-6.01l-1.969,3.91H80.556l-1.984-3.91v6.01H76.56V24.954h1.984l2.693,5.575,2.679-5.575H85.9v10.31Z" transform="translate(-22.486 -7.494)" fill="#a4a6a8" fill-rule="evenodd"/>
      <path id="Fill-45" d="M105.127,27.177a1.672,1.672,0,0,0-1.289-.551,1.726,1.726,0,0,0-1.3.551c-.376.434-.492.926-.492,2.9s.116,2.447.492,2.881a1.739,1.739,0,0,0,1.3.565,1.683,1.683,0,0,0,1.289-.565c.376-.434.507-.912.507-2.881s-.131-2.462-.507-2.9m1.462,7.052a4.045,4.045,0,0,1-5.517,0c-1.028-1.028-1.042-2.187-1.042-4.156s.015-3.129,1.042-4.157a4.048,4.048,0,0,1,5.517,0c1.028,1.028,1.057,2.187,1.057,4.157s-.028,3.127-1.057,4.156" transform="translate(-29.379 -7.458)" fill="#a4a6a8" fill-rule="evenodd"/>
      <path id="Fill-47" d="M117.026,26.749v2.534H121.1v1.8h-4.069v4.185h-2.013V24.954H121.8v1.8Z" transform="translate(-33.78 -7.494)" fill="#a4a6a8" fill-rule="evenodd"/>
      <path id="Fill-49" d="M137.436,28l-1.3,3.751H138.7Zm2.4,7.269-.609-1.824h-3.663l-.623,1.824h-2.1l3.751-10.31h1.578l3.765,10.31Z" transform="translate(-39.018 -7.494)" fill="#a4a6a8" fill-rule="evenodd"/>
      <path id="Fill-51" d="M152.723,26.749h-1.9v2.722h1.9a1.364,1.364,0,1,0,0-2.722Zm1.564,8.515-2.012-4.112h-1.448v4.112h-2.013V24.954h4.04a3.117,3.117,0,0,1,3.345,3.157,2.778,2.778,0,0,1-1.883,2.708l2.3,4.445Z" transform="translate(-43.708 -7.494)" fill="#a4a6a8" fill-rule="evenodd"/>
      <path id="Fill-53" d="M166.823,26.749v8.515H164.81V26.749h-2.693v-1.8h7.4v1.8Z" transform="translate(-47.615 -7.494)" fill="#a4a6a8" fill-rule="evenodd"/>
    </g>
    <path id="Fill-55" d="M30.054,0V4.9L23.935,2.735,17.816,4.9V0H12.988V8.98H4.745V5.9H0V33.375H47.87V5.9H43.125V8.98H34.882V0Z" transform="translate(0 0)" fill="#ef4135" fill-rule="evenodd"/>
  </g>
</svg>
